<svg width="138" height="56" viewBox="0 0 138 56" fill="none" xmlns="http://www.w3.org/2000/svg">
<path d="M2.12512 11.0508H0V45.0169H2.12512V11.0508Z" fill="white"/>
<path d="M138 11.0508H135.875V45.0169H138V11.0508Z" fill="white"/>
<path d="M106.588 0H104.463V56H106.588V0Z" fill="white"/>
<path d="M14.0126 29.7627V28.0678H22.7787C22.7787 28.2034 22.7787 28.339 22.7787 28.4746C22.7787 28.6102 22.7787 28.7458 22.7787 28.8136V29.2204V29.6271C22.7787 32 22.513 33.7627 21.9818 34.9153C21.4505 36.0678 20.0559 36.6102 17.7979 36.6102H14.4774H13.8797C13.6805 36.6102 13.4813 36.6102 13.282 36.6102H12.6844H12.0867C9.56308 36.6102 7.90283 36.1356 7.0395 35.1865C6.17617 34.2373 5.77771 32.2034 5.77771 28.9492V28C5.77771 25.0848 6.04335 22.9153 6.57463 21.4915C7.10591 20.0678 8.63334 19.3898 11.2233 19.3898L14.6102 19.3221C14.7431 19.3221 14.8759 19.3221 15.0087 19.3221C15.1415 19.3221 15.2743 19.3221 15.4072 19.3221H15.8056H16.2041H16.8682C17.0674 19.3221 17.3331 19.3221 17.5323 19.3221C17.7315 19.3221 17.9972 19.3221 18.1964 19.3898C18.3956 19.3898 18.6613 19.3898 18.8605 19.4576C20.1887 19.5932 21.1184 20 21.6497 20.8136C22.181 21.6271 22.4466 22.8475 22.4466 24.4746H20.8528C20.8528 22.9153 20.5871 21.9661 19.9895 21.6949C19.3918 21.4237 18.5948 21.2882 17.5323 21.2204H17.4659H17.3995L14.6767 21.1526C14.5438 21.1526 14.411 21.1526 14.2782 21.1526C14.1454 21.1526 14.0126 21.1526 13.8797 21.1526H13.4813H13.0828H12.4187C12.2195 21.1526 11.9538 21.1526 11.7546 21.1526C11.5554 21.1526 11.2897 21.1526 11.0905 21.2204C10.8913 21.2204 10.6256 21.2204 10.4264 21.2882H10.36C10.2936 21.2882 10.2936 21.2882 10.2936 21.2882C9.56308 21.356 8.96539 21.5593 8.50052 21.8983C8.03565 22.2373 7.77001 23.1865 7.7036 24.8136C7.7036 25.1526 7.7036 25.5593 7.63719 25.8983C7.63719 26.2373 7.63719 26.6441 7.63719 26.9831C7.63719 27.3221 7.63719 27.7288 7.63719 28.0678V29.1526C7.63719 31.1865 7.77001 32.678 8.10206 33.4915C8.3677 34.3051 9.43026 34.7119 11.2233 34.7797H14.6767C14.8095 34.7797 14.9423 34.7797 15.0087 34.7797H15.2743C15.4072 34.7797 15.54 34.7797 15.6064 34.7797H15.9384H16.6025C16.8018 34.7797 17.001 34.7797 17.2002 34.7797C17.3995 34.7797 17.5987 34.7797 17.7979 34.7119C17.9972 34.7119 18.1964 34.6441 18.3956 34.6441C19.6574 34.4407 20.3879 34.0339 20.6536 33.356C20.9192 32.678 21.052 31.661 21.052 30.5085C21.052 30.3729 21.052 30.2373 21.052 30.1695C21.052 30.0339 21.052 29.8983 21.052 29.7627H14.0126V29.7627Z" fill="white"/>
<path d="M37.5217 19.5254C39.1819 19.5254 40.3773 19.8644 41.1742 20.4746C41.9711 21.0848 42.3696 22.4407 42.3696 24.5424C42.3696 26.0339 42.1704 27.0509 41.7719 27.661C41.3734 28.2712 40.5765 28.678 39.2483 28.8814C40.1117 29.017 40.7758 29.2204 41.307 29.6271C41.8383 30.0339 42.104 30.7797 42.104 31.8644V36.4068H40.3773V32.678C40.3773 31.3898 40.1117 30.5763 39.6468 30.1695C39.1819 29.7627 38.385 29.6271 37.3224 29.6271H27.4938V36.4746H25.7671V19.5254H37.5217V19.5254ZM37.1896 27.9322C38.385 27.9322 39.3147 27.7288 39.7796 27.322C40.3109 26.8475 40.5765 25.9661 40.5765 24.4746C40.5765 23.0509 40.3109 22.1695 39.7132 21.8305C39.1155 21.4915 38.2522 21.2881 37.1896 21.2881H27.4938V27.9322H37.1896Z" fill="white"/>
<path d="M44.9596 28.1356V27.322C44.9596 27.0509 44.9596 26.7797 44.9596 26.5085C44.9596 25.9661 44.9596 25.3559 45.026 24.8136C45.0924 24.2712 45.1588 23.661 45.2252 23.1187C45.4909 21.6271 46.0222 20.6102 46.8191 20.2034C47.616 19.7966 48.5457 19.5254 49.6083 19.5254C50.0732 19.5254 50.6045 19.5254 51.0693 19.4576C51.5342 19.4576 52.0655 19.4576 52.5303 19.4576H53.9914H55.4524C58.1752 19.4576 59.9683 19.9322 60.6988 20.8814C61.4957 21.8305 61.8277 24 61.8277 27.4576C61.8277 28.2034 61.8277 28.9492 61.8277 29.7627C61.8277 30.5085 61.7613 31.2543 61.6949 32.0678C61.5621 33.6949 61.1636 34.8475 60.4995 35.4576C59.8354 36.1356 58.9057 36.4746 57.6439 36.6102C57.1126 36.678 56.5814 36.7458 55.9837 36.7458C55.4524 36.7458 54.9211 36.7458 54.3234 36.7458H51.4014C50.9365 36.7458 50.4716 36.7458 50.0068 36.7458C49.5419 36.7458 49.077 36.678 48.6121 36.6102C48.5457 36.6102 48.4793 36.6102 48.4129 36.6102C48.3465 36.6102 48.2801 36.6102 48.2137 36.6102C47.6824 36.5424 47.2175 36.339 46.7527 36.0678C46.2878 35.7966 45.8893 35.3898 45.6237 34.7797C45.4245 34.3051 45.2252 33.7627 45.1588 33.1526C45.026 32.5424 44.9596 31.8644 44.9596 31.2543C44.8932 30.7119 44.8932 30.2373 44.8932 29.6949C44.9596 29.017 44.9596 28.5424 44.9596 28.1356ZM46.6198 29.2882C46.6198 31.1187 46.7527 32.5424 47.0847 33.4237C47.4168 34.3051 48.3465 34.7797 50.0068 34.7797L53.3937 34.8475H54.589C54.8547 34.8475 55.1203 34.8475 55.386 34.8475C55.6516 34.8475 55.9172 34.8475 56.1829 34.8475C56.4485 34.8475 56.7142 34.8475 56.9798 34.7797C57.2455 34.7797 57.5111 34.7119 57.7767 34.7119C58.8393 34.5763 59.5034 34.1017 59.769 33.3559C60.0347 32.6102 60.1675 31.5932 60.1675 30.4407C60.1675 30.1695 60.1675 29.8983 60.1675 29.5593C60.1675 29.2881 60.1675 28.9492 60.1675 28.678C60.1675 28.4068 60.1675 28.1356 60.1675 27.7966V26.9153C60.1675 26.6441 60.1675 26.3729 60.1675 26.1017C60.1675 25.8305 60.1675 25.4915 60.1675 25.2204C60.1675 24.678 60.1011 24.0678 60.0347 23.5932C59.9683 23.0509 59.8354 22.6441 59.6362 22.3051C59.5698 22.1017 59.437 21.9661 59.2377 21.8305C59.1049 21.6949 58.9057 21.6271 58.7729 21.5593C58.7729 21.5593 58.7729 21.5593 58.7065 21.4915H58.6401C58.4408 21.4237 58.1752 21.3559 57.976 21.2881C57.7103 21.2881 57.5111 21.2204 57.2454 21.2204C57.1126 21.2204 56.9798 21.2204 56.847 21.2204H56.4485L53.3273 21.1526L50.2724 21.2204C48.8778 21.2204 47.8816 21.4915 47.4168 21.9661C46.9519 22.4407 46.6863 23.5932 46.6198 25.5593L46.5534 28.0678V29.2882H46.6198Z" fill="white"/>
<path d="M81.2859 19.5254V31.2542C81.2859 33.8305 80.821 35.3898 79.9577 35.8644C79.0279 36.339 77.6333 36.6102 75.7074 36.678H75.641H75.5746C75.1097 36.678 74.6449 36.678 74.18 36.678H72.719C72.0549 36.678 71.3908 36.678 70.7267 36.678C70.0626 36.678 69.3985 36.678 68.668 36.6102C67.2733 36.5424 66.2772 36.1356 65.6131 35.4576C64.949 34.7797 64.6169 33.5593 64.6169 31.8644V19.5254H66.3436V31.661C66.3436 33.1526 66.6092 34.0339 67.2069 34.3729C67.8046 34.7119 68.6015 34.8475 69.7305 34.9153H72.7854L76.0395 34.8475C77.2348 34.8475 78.0982 34.6441 78.6959 34.3729C79.2936 34.0339 79.5592 33.0848 79.5592 31.5932V31.1865V19.661H81.2859V19.5254Z" fill="white"/>
<path d="M96.4273 19.5254C98.0212 19.5254 99.1501 19.8644 99.8142 20.5424C100.478 21.2204 100.81 22.5085 100.81 24.339C100.81 24.6102 100.81 24.8814 100.81 25.2204C100.81 25.5593 100.744 25.8305 100.744 26.1695C100.678 26.6441 100.611 27.1187 100.478 27.5932C100.346 28.0678 100.146 28.4068 99.9471 28.678C99.615 29.0848 99.2165 29.2882 98.8181 29.4915C98.4196 29.6271 97.9548 29.7627 97.4899 29.7627C97.2907 29.7627 97.0914 29.7627 96.9586 29.7627C96.7594 29.7627 96.6266 29.7627 96.4273 29.7627H86.1338V36.339H84.3407V19.3898H96.4273V19.5254ZM95.2319 28.1356C96.6265 28.1356 97.5563 28 98.0876 27.5932C98.6189 27.1865 98.8845 26.1695 98.8845 24.4746C98.8845 23.322 98.6853 22.5085 98.3532 22.0339C97.9548 21.5593 97.2906 21.2882 96.2281 21.2882H86.0009V28.1356H95.2319Z" fill="white"/>
<path d="M127.773 19.5254C129.035 19.5254 129.964 19.8644 130.695 20.4746C131.425 21.0848 131.758 22.2373 131.758 23.7966C131.758 25.0848 131.558 25.9661 131.226 26.5085C130.894 26.9831 130.164 27.322 129.035 27.5932C130.296 27.661 131.093 28 131.558 28.5424C132.023 29.1526 132.222 30.1695 132.222 31.5932C132.222 33.4915 131.824 34.7797 131.093 35.4576C130.296 36.1356 129.168 36.4746 127.574 36.4746H115.686V19.5254H127.773V19.5254ZM127.109 26.7797C128.039 26.7797 128.769 26.6441 129.234 26.2373C129.699 25.8983 129.964 25.0848 129.964 23.9322C129.964 22.8475 129.765 22.1017 129.3 21.7627C128.835 21.4237 128.238 21.2881 127.308 21.2881H117.347V26.7797H127.109ZM127.242 34.7797C128.238 34.7797 129.035 34.6441 129.632 34.3051C130.23 33.9661 130.496 33.1526 130.496 31.9322V31.5254C130.496 31.3898 130.496 31.2543 130.496 31.0509C130.496 30.6441 130.363 30.2373 130.296 29.8983C130.164 29.5593 129.964 29.2204 129.632 29.017C129.367 28.8814 129.101 28.7458 128.835 28.678C128.57 28.6102 128.304 28.6102 128.039 28.5424H127.773H127.507H127.242H117.479V34.7797H127.242V34.7797Z" fill="white"/>
<path d="M112.565 19.5254H110.573V36.4746H112.565V19.5254Z" fill="white"/>
<path d="M113.096 14.9831H109.975V18.1695H113.096V14.9831Z" fill="white"/>
</svg>
