<svg width="528" height="528" viewBox="0 0 528 528" fill="none" xmlns="http://www.w3.org/2000/svg">
<path fill-rule="evenodd" clip-rule="evenodd" d="M401.518 370.614C396.137 377.502 386.18 378.714 379.279 373.322C372.378 367.931 371.146 357.977 376.527 351.089C399.584 321.577 409.765 284.954 405.873 248.421C401.802 210.213 382.671 175.145 351.755 150.99C289.645 102.465 200.036 113.376 151.607 175.362C110.253 228.293 111.774 302.632 154.096 353.812C159.676 360.56 158.736 370.542 151.995 376.107C145.254 381.671 135.266 380.712 129.685 373.963C77.9279 311.373 76.0692 220.534 126.616 155.837C185.806 80.0766 295.329 66.74 371.241 126.049C409.004 155.553 432.413 198.463 437.385 245.128C442.139 289.75 429.68 334.569 401.518 370.614Z" fill="#20242B"/>
<path fill-rule="evenodd" clip-rule="evenodd" d="M130.559 375.203C136.177 381.898 146.17 382.762 152.879 377.133C159.588 371.504 160.472 361.512 154.854 354.817C130.781 326.128 119.328 289.882 121.943 253.236C124.678 214.908 142.573 179.194 172.627 153.976C206.801 125.301 251.55 114.566 294.31 123.688C302.864 125.513 311.292 120.057 313.134 111.502C314.976 102.947 309.535 94.5325 300.981 92.7077C248.767 81.5694 194.03 94.6993 152.283 129.73C115.572 160.533 93.6751 204.235 90.3352 251.044C87.1414 295.805 101.157 340.162 130.559 375.203Z" fill="#004CDF"/>
<path fill-rule="evenodd" clip-rule="evenodd" d="M404.756 387.269L400.767 383.801C400.995 383.54 401.221 383.278 401.447 383.016L405.455 386.461C405.223 386.731 404.99 387 404.756 387.269ZM428.954 352.049L424.287 349.57C424.449 349.264 424.61 348.957 424.771 348.65L429.453 351.102C429.287 351.418 429.121 351.734 428.954 352.049ZM444.491 312.227L439.383 310.877C439.471 310.542 439.558 310.205 439.645 309.869L444.76 311.189C444.672 311.536 444.582 311.882 444.491 312.227ZM450.55 269.925L445.271 269.765C445.281 269.418 445.29 269.072 445.298 268.725L450.577 268.854C450.569 269.211 450.56 269.568 450.55 269.925ZM446.894 227.29L441.718 228.325C441.649 227.984 441.579 227.644 441.508 227.304L446.679 226.239C446.752 226.589 446.823 226.94 446.894 227.29ZM433.709 186.598L428.904 188.779C428.76 188.463 428.615 188.148 428.47 187.833L433.262 185.624C433.412 185.948 433.561 186.273 433.709 186.598ZM411.603 149.941L407.426 153.162C407.213 152.887 407 152.613 406.786 152.339L410.945 149.094C411.166 149.376 411.385 149.658 411.603 149.941ZM381.76 119.252L378.416 123.333C378.15 123.114 377.882 122.896 377.615 122.679L380.935 118.58C381.211 118.804 381.485 119.028 381.76 119.252ZM345.759 96.0289L343.429 100.763C343.118 100.609 342.805 100.456 342.493 100.304L344.795 95.557C345.117 95.7134 345.438 95.8707 345.759 96.0289ZM305.456 81.6182L304.268 86.7603C303.929 86.6813 303.589 86.6033 303.249 86.5263L304.407 81.3773C304.757 81.4566 305.106 81.5369 305.456 81.6182ZM262.984 76.7331L262.991 82.0127C262.644 82.0125 262.298 82.0132 261.951 82.0149L261.915 76.7353C262.271 76.7336 262.628 76.7328 262.984 76.7331ZM220.447 81.5624L221.646 86.7068C221.308 86.7849 220.969 86.864 220.632 86.944L219.404 81.8066C219.752 81.7242 220.099 81.6428 220.447 81.5624ZM180.134 95.89L182.47 100.63C182.158 100.783 181.847 100.937 181.537 101.091L179.174 96.3648C179.494 96.2056 179.814 96.0474 180.134 95.89ZM144.254 118.966L147.607 123.052C147.339 123.271 147.072 123.492 146.805 123.713L143.429 119.646C143.703 119.419 143.978 119.192 144.254 118.966ZM114.499 149.636L118.683 152.866C118.471 153.141 118.259 153.417 118.049 153.693L113.847 150.487C114.063 150.203 114.281 149.919 114.499 149.636ZM92.4138 186.263L97.2209 188.459C97.0768 188.775 96.9337 189.092 96.7916 189.409L91.9719 187.241C92.1183 186.914 92.2656 186.588 92.4138 186.263ZM79.2901 226.933L84.4691 227.977C84.4014 228.316 84.3346 228.655 84.2688 228.995L79.084 227.98C79.1517 227.631 79.2204 227.282 79.2901 226.933ZM75.746 269.519L81.0247 269.367C81.0354 269.713 81.047 270.059 81.0596 270.404L75.782 270.586C75.769 270.231 75.757 269.875 75.746 269.519ZM81.9154 311.89L87.0211 310.55C87.11 310.887 87.2 311.223 87.2909 311.559L82.193 312.928C82.0995 312.582 82.007 312.236 81.9154 311.89ZM97.4979 351.734L102.163 349.269C102.326 349.576 102.489 349.882 102.654 350.188L98.0027 352.68C97.8335 352.365 97.6653 352.05 97.4979 351.734ZM121.726 386.975L125.705 383.511C125.933 383.773 126.162 384.034 126.392 384.295L122.433 387.782C122.197 387.513 121.961 387.244 121.726 386.975Z" fill="#E1E6EF"/>
</svg>
